<svg width="34" height="33" viewBox="0 0 34 33" fill="none" xmlns="http://www.w3.org/2000/svg">
<path d="M11.3722 26.5716C11.3722 26.708 11.2145 26.8172 11.0157 26.8172C10.7895 26.8377 10.6319 26.7285 10.6319 26.5716C10.6319 26.4351 10.7895 26.3259 10.9883 26.3259C11.194 26.3054 11.3722 26.4146 11.3722 26.5716ZM9.24032 26.2645C9.19234 26.401 9.32944 26.5579 9.53508 26.5988C9.71331 26.6671 9.91895 26.5988 9.96008 26.4624C10.0012 26.3259 9.87097 26.169 9.66532 26.1075C9.4871 26.0598 9.28831 26.128 9.24032 26.2645ZM12.2702 26.1485C12.0714 26.1962 11.9343 26.3259 11.9548 26.4828C11.9754 26.6193 12.1536 26.708 12.3593 26.6603C12.5581 26.6125 12.6952 26.4828 12.6746 26.3464C12.654 26.2167 12.469 26.128 12.2702 26.1485ZM16.7806 0C7.27299 0 0 7.18537 0 16.6499C0 24.2174 4.78468 30.6931 11.619 32.9722C12.4964 33.1291 12.8048 32.5901 12.8048 32.1465C12.8048 31.7235 12.7843 29.3897 12.7843 27.9568C12.7843 27.9568 7.98589 28.9803 6.97823 25.9233C6.97823 25.9233 6.19677 23.9376 5.07258 23.4258C5.07258 23.4258 3.50282 22.3545 5.18226 22.375C5.18226 22.375 6.88911 22.5114 7.82823 24.1355C9.32944 26.7694 11.8452 26.012 12.8254 25.5616C12.9831 24.4698 13.4286 23.7124 13.9222 23.262C10.0903 22.839 6.22419 22.2863 6.22419 15.7218C6.22419 13.8453 6.74516 12.9036 7.84194 11.7027C7.66371 11.2591 7.08105 9.43038 8.02016 7.06937C9.45282 6.62583 12.75 8.91177 12.75 8.91177C14.121 8.52965 15.5948 8.33176 17.0548 8.33176C18.5149 8.33176 19.9887 8.52965 21.3597 8.91177C21.3597 8.91177 24.6569 6.619 26.0895 7.06937C27.0286 9.4372 26.446 11.2591 26.2677 11.7027C27.3645 12.9105 28.0363 13.8521 28.0363 15.7218C28.0363 22.3067 23.9988 22.8322 20.1669 23.262C20.7976 23.8011 21.3323 24.8247 21.3323 26.4283C21.3323 28.7278 21.3117 31.5733 21.3117 32.1329C21.3117 32.5764 21.627 33.1155 22.4976 32.9585C29.3524 30.6931 34 24.2174 34 16.6499C34 7.18537 26.2883 0 16.7806 0ZM6.6629 23.535C6.57379 23.6032 6.59436 23.7602 6.71089 23.8898C6.82056 23.999 6.97823 24.0468 7.06734 23.9581C7.15645 23.8898 7.13589 23.7329 7.01935 23.6032C6.90968 23.4941 6.75202 23.4463 6.6629 23.535ZM5.92258 22.9823C5.8746 23.071 5.94315 23.1802 6.08024 23.2484C6.18992 23.3166 6.32702 23.2962 6.375 23.2006C6.42298 23.1119 6.35444 23.0027 6.21734 22.9345C6.08024 22.8936 5.97056 22.914 5.92258 22.9823ZM8.14355 25.4115C8.03387 25.5002 8.075 25.7049 8.23266 25.8346C8.39032 25.9915 8.58911 26.012 8.67823 25.9028C8.76734 25.8141 8.72621 25.6094 8.58911 25.4798C8.43831 25.3228 8.23266 25.3023 8.14355 25.4115ZM7.3621 24.4084C7.25242 24.4767 7.25242 24.6541 7.3621 24.811C7.47177 24.968 7.65685 25.0362 7.74597 24.968C7.85565 24.8793 7.85565 24.7019 7.74597 24.5449C7.65 24.388 7.47177 24.3197 7.3621 24.4084Z" fill="black"/>
</svg>
