<svg width="169" height="20" viewBox="0 0 169 20" fill="none" xmlns="http://www.w3.org/2000/svg">
<g clip-path="url(#clip0_302_265)">
<path d="M10.883 6.22002C10.883 4.40602 9.587 3.37002 7.773 3.37002H3.24V9.20002H7.645C9.588 9.20002 10.884 8.03402 10.884 6.22002H10.883ZM10.623 18.916L6.607 12.05H3.24V18.916H0V0.52002H8.032C11.66 0.52002 14.122 2.85202 14.122 6.22002C14.122 9.45902 11.919 11.273 9.717 11.661L14.251 18.916H10.624H10.623ZM20.989 18.916V3.37002H15.418V0.52002H29.669V3.37002H24.099V18.916H20.989ZM43.272 13.475C43.272 12.05 42.365 10.884 40.552 10.884H35.239V16.066H40.551C42.106 16.066 43.271 15.159 43.271 13.475H43.272ZM42.883 5.70202C42.883 4.40602 41.976 3.37002 40.293 3.37002H35.11V8.16302H40.292C41.976 8.16302 42.883 7.12702 42.883 5.70202ZM31.871 18.916V0.52002H40.94C44.308 0.52002 46.122 2.59202 46.122 5.18402C46.122 7.51602 44.697 9.07002 42.883 9.45902C44.827 9.71802 46.381 11.661 46.381 13.993C46.381 16.843 44.568 18.916 41.069 18.916H31.871Z" fill="#ED4136"/>
<path d="M65.683 18.916V10.496H54.93V18.916H52.598V0.52H54.93V8.422H65.683V0.52H67.885V18.916H65.683ZM86.802 9.715C86.802 5.44 84.082 2.201 80.065 2.201C75.919 2.201 73.328 5.311 73.328 9.715C73.328 13.991 75.919 17.23 80.065 17.23C84.211 17.23 86.802 13.99 86.802 9.715ZM70.996 9.715C70.996 4.274 74.624 0.258 80.065 0.258C85.506 0.258 89.263 4.274 89.263 9.715C89.263 15.157 85.506 19.173 80.065 19.173C74.624 19.173 70.996 15.157 70.996 9.715ZM92.242 11.79V0.52H94.574V11.66C94.574 15.029 96.388 17.102 99.756 17.102C103.125 17.102 104.939 15.029 104.939 11.66V0.52H107.271V11.66C107.271 16.195 104.679 19.174 99.756 19.174C94.704 19.174 92.242 16.324 92.242 11.79ZM109.863 16.324L111.288 14.51C112.454 15.935 114.398 17.101 116.989 17.101C120.228 17.101 121.264 15.288 121.264 13.862C121.264 9.069 110.382 11.79 110.382 5.182C110.382 2.202 113.102 0 116.73 0C119.45 0 121.653 0.907 123.207 2.591L121.782 4.275C120.357 2.721 118.543 2.073 116.471 2.073C114.268 2.073 112.714 3.239 112.714 5.053C112.714 9.198 123.596 6.866 123.596 13.733C123.596 16.323 121.782 19.174 116.859 19.174C113.75 19.174 111.288 18.008 109.863 16.324ZM126.574 18.916V0.52H138.493V2.592H128.777V8.552H138.493V10.495H128.777V16.843H138.493V18.916H126.574Z" fill="black"/>
<path d="M168.293 8.55002H153.395V10.624H168.293V8.55002ZM168.293 0.52002H153.395V2.59202H168.293V0.52002Z" fill="#ED4136"/>
</g>
<defs>
<clipPath id="clip0_302_265">
<rect width="169" height="20" fill="white"/>
</clipPath>
</defs>
</svg>
